<svg id="Layer_1" data-name="Layer 1" xmlns="http://www.w3.org/2000/svg" viewBox="0 0 265.28 269.51"><defs><style>.cls-1,.cls-4{fill:#231f20;}.cls-1,.cls-2,.cls-3{fill-rule:evenodd;}.cls-2{fill:#faa21b;}.cls-3{fill:#0057a3;}.cls-4{font-size:153.31px;font-family:ErasITC-Light, Eras Light ITC;font-weight:300;}</style></defs><path class="cls-1" d="M169,101.78a89.67,89.67,0,0,1,89.66,89.66h21.87A111.56,111.56,0,0,0,169,79.89Z" transform="translate(-48.9 -79.89)"/><path class="cls-2" d="M230.15,130.23A86.3,86.3,0,0,0,169,104.88v22.83a63.73,63.73,0,0,1,63.73,63.73h22.83A86.33,86.33,0,0,0,230.15,130.23Z" transform="translate(-48.9 -79.89)"/><path class="cls-3" d="M168.81,154.89v-13a49.18,49.18,0,0,0-49.16,49.16h13A36.21,36.21,0,0,1,168.81,154.89Z" transform="translate(-48.9 -79.89)"/><path class="cls-1" d="M132,154.28a52.77,52.77,0,0,1,36.81-15V127.74a63.36,63.36,0,0,0-63.34,63.35H117A52.83,52.83,0,0,1,132,154.28Z" transform="translate(-48.9 -79.89)"/><text class="cls-4" transform="translate(2.45 231.18)">A2Z</text></svg>